<svg width="201" height="78" viewBox="0 0 201 78" fill="none" xmlns="http://www.w3.org/2000/svg">
<path d="M88.256 22.888V17.8H96.08C97.68 17.8 98.912 17.4 99.776 16.6C100.672 15.768 101.12 14.632 101.12 13.192C101.12 11.88 100.672 10.792 99.776 9.928C98.912 9.032 97.68 8.584 96.08 8.584H88.256V3.256H96.656C98.832 3.256 100.736 3.688 102.368 4.552C104.032 5.384 105.312 6.536 106.208 8.008C107.136 9.48 107.6 11.176 107.6 13.096C107.6 15.08 107.136 16.808 106.208 18.28C105.312 19.72 104.032 20.856 102.368 21.688C100.704 22.488 98.768 22.888 96.56 22.888H88.256ZM83.456 37V3.256H89.984V37H83.456ZM101.888 37L90.752 22.408L96.752 20.536L109.808 37H101.888ZM127.094 37.528C124.63 37.528 122.326 37.08 120.182 36.184C118.07 35.288 116.214 34.056 114.614 32.488C113.046 30.888 111.814 29.032 110.918 26.92C110.022 24.776 109.574 22.488 109.574 20.056C109.574 17.624 110.006 15.368 110.87 13.288C111.766 11.176 112.998 9.336 114.566 7.768C116.166 6.168 118.022 4.936 120.134 4.072C122.246 3.176 124.534 2.728 126.998 2.728C129.494 2.728 131.798 3.176 133.91 4.072C136.022 4.936 137.862 6.168 139.43 7.768C141.03 9.336 142.278 11.176 143.174 13.288C144.07 15.4 144.518 17.672 144.518 20.104C144.518 22.536 144.07 24.808 143.174 26.92C142.278 29.032 141.03 30.888 139.43 32.488C137.862 34.056 136.022 35.288 133.91 36.184C131.83 37.08 129.558 37.528 127.094 37.528ZM126.998 31.432C129.174 31.432 131.062 30.952 132.662 29.992C134.262 29.032 135.51 27.704 136.406 26.008C137.334 24.312 137.798 22.328 137.798 20.056C137.798 18.392 137.542 16.872 137.03 15.496C136.518 14.12 135.782 12.936 134.822 11.944C133.862 10.92 132.726 10.136 131.414 9.592C130.102 9.048 128.63 8.776 126.998 8.776C124.886 8.776 123.014 9.256 121.382 10.216C119.782 11.144 118.518 12.456 117.59 14.152C116.694 15.848 116.246 17.816 116.246 20.056C116.246 21.752 116.502 23.304 117.014 24.712C117.558 26.12 118.294 27.32 119.222 28.312C120.182 29.304 121.318 30.072 122.63 30.616C123.974 31.16 125.43 31.432 126.998 31.432ZM156.721 37.48C154.001 37.48 151.665 37.016 149.713 36.088C147.793 35.16 146.048 33.768 144.48 31.912L148.801 27.592C149.793 28.904 150.945 29.928 152.257 30.664C153.569 31.368 155.169 31.72 157.057 31.72C158.753 31.72 160.097 31.384 161.089 30.712C162.113 30.04 162.625 29.112 162.625 27.928C162.625 26.904 162.337 26.072 161.761 25.432C161.185 24.792 160.417 24.248 159.457 23.8C158.529 23.352 157.489 22.952 156.337 22.6C155.217 22.216 154.081 21.784 152.929 21.304C151.809 20.824 150.768 20.232 149.808 19.528C148.881 18.792 148.129 17.864 147.552 16.744C146.976 15.592 146.688 14.152 146.688 12.424C146.688 10.376 147.184 8.632 148.177 7.192C149.169 5.752 150.529 4.648 152.257 3.88C153.985 3.112 155.937 2.728 158.113 2.728C160.417 2.728 162.497 3.16 164.353 4.024C166.209 4.888 167.729 6.008 168.913 7.384L164.593 11.704C163.601 10.616 162.577 9.816 161.521 9.304C160.497 8.792 159.329 8.536 158.016 8.536C156.513 8.536 155.329 8.824 154.465 9.4C153.601 9.976 153.169 10.808 153.169 11.896C153.169 12.824 153.457 13.576 154.033 14.152C154.609 14.728 155.361 15.224 156.289 15.64C157.249 16.056 158.289 16.456 159.409 16.84C160.561 17.224 161.697 17.656 162.817 18.136C163.969 18.616 165.009 19.24 165.937 20.008C166.897 20.776 167.665 21.768 168.241 22.984C168.817 24.168 169.105 25.64 169.105 27.4C169.105 30.536 168.001 33 165.793 34.792C163.585 36.584 160.561 37.48 156.721 37.48ZM172.337 37V3.256H178.865V37H172.337ZM177.137 37V31.24H195.809V37H177.137ZM177.137 22.552V16.984H194.129V22.552H177.137ZM177.137 9.016V3.256H195.569V9.016H177.137Z" fill="#F9627D"/>
<path d="M91.808 76V42.976H98.384V76H91.808ZM81.056 48.064V42.256H109.136V48.064H81.056ZM111.724 76V42.256H118.252V76H111.724ZM116.524 76V70.24H135.196V76H116.524ZM116.524 61.552V55.984H133.516V61.552H116.524ZM116.524 48.016V42.256H134.956V48.016H116.524ZM153.717 76.48C151.253 76.48 148.965 76.048 146.853 75.184C144.741 74.288 142.885 73.056 141.285 71.488C139.717 69.888 138.501 68.032 137.637 65.92C136.805 63.808 136.389 61.536 136.389 59.104C136.389 56.672 136.805 54.4 137.637 52.288C138.501 50.176 139.717 48.336 141.285 46.768C142.885 45.2 144.725 43.968 146.805 43.072C148.917 42.176 151.221 41.728 153.717 41.728C156.405 41.728 158.773 42.176 160.821 43.072C162.869 43.936 164.677 45.136 166.245 46.672L161.829 51.088C160.901 50.064 159.765 49.264 158.421 48.688C157.077 48.112 155.509 47.824 153.717 47.824C152.149 47.824 150.709 48.096 149.397 48.64C148.117 49.152 146.997 49.92 146.037 50.944C145.077 51.936 144.341 53.136 143.829 54.544C143.317 55.92 143.061 57.44 143.061 59.104C143.061 60.8 143.317 62.336 143.829 63.712C144.341 65.088 145.077 66.288 146.037 67.312C146.997 68.304 148.117 69.072 149.397 69.616C150.709 70.16 152.149 70.432 153.717 70.432C155.605 70.432 157.221 70.144 158.565 69.568C159.941 68.992 161.093 68.176 162.021 67.12L166.437 71.536C164.869 73.104 163.045 74.32 160.965 75.184C158.885 76.048 156.469 76.48 153.717 76.48ZM169.055 76V42.256H175.583V76H169.055ZM190.223 76V42.256H196.751V76H190.223ZM173.183 61.456V55.696H192.047V61.456H173.183Z" fill="#C65B7C"/>
<path d="M43.3544 75.5556C20.8715 78.853 7.11304 62.9938 3.04417 54.6521C8.81629 58.2832 24.6186 65.3688 41.6511 64.6622C58.6836 63.9556 71.6473 50.8247 76 44.3475C74.486 53.3763 65.8373 72.2581 43.3544 75.5556Z" fill="#F9627D"/>
<path d="M15.8185 9.90098C-3.03075 38.4004 20.8337 55.9279 35.122 61.1292C26.1634 61.5218 6.8652 58.0084 1.34092 40.8146C-4.18337 23.6207 8.69088 13.0414 15.8185 9.90098Z" fill="#F9627D"/>
<path d="M40.2318 54.6521C22.0638 57.2429 18.2788 40.6183 18.6573 31.9821C19.6982 34.5337 22.1206 40.0491 23.4832 41.6978C25.1864 43.7587 29.7284 48.1749 35.9737 47.8805C42.2189 47.5861 47.8964 42.2866 49.3158 35.8095C50.7351 29.3324 46.7609 23.1497 40.7995 23.1497C34.8381 23.1497 33.2331 29.327 34.2704 31.0989C36.48 34.8732 40.5156 36.1039 40.7995 35.8095C40.0425 36.7909 37.7337 38.2237 34.5543 36.1039C31.3749 33.9841 31.7155 28.5473 32.2833 26.0938C33.1349 23.4441 36.3711 18.1446 42.5028 18.1446C48.6345 18.1446 53.5739 25.4068 55.2771 29.038C57.832 36.4965 58.3998 52.0612 40.2318 54.6521Z" fill="#F9627D"/>
<path d="M28.5929 21.3832C25.1864 26.5649 27.552 34.5337 29.1607 37.8704C25.8488 33.9449 20.6444 24.504 26.3219 18.1446C31.9994 11.7852 38.907 12.9433 41.6511 14.3172C37.1091 14.0228 32.851 14.906 28.5929 21.3832Z" fill="#F9627D"/>
<path d="M37.393 8.72332C23.0857 8.95885 15.7239 23.1497 13.8314 30.2156C14.3045 20.4018 19.9631 1.24517 38.8124 3.12942C57.6617 5.01368 62.9418 19.4204 63.2256 26.3882C61.8063 22.5608 55.2771 8.4289 37.393 8.72332Z" fill="#F9627D"/>
<path d="M60.3869 34.6318C60.9546 43.4643 54.4255 49.0582 54.1416 49.3526C57.3589 48.0768 63.6798 43.3465 63.2256 34.6318C62.7714 25.9172 57.7374 22.5608 55.2771 21.972C56.7911 23.2478 59.9327 27.5659 60.3869 34.6318Z" fill="#F9627D"/>
<path d="M66.916 41.4034C63.5095 53.18 54.3309 57.6944 50.1674 58.4795C51.6814 58.3813 56.1288 57.5962 61.8063 55.2409C67.4838 52.8856 70.7956 45.6233 71.7419 42.2866C72.215 40.8146 72.8206 36.5161 71.458 31.0989C70.0954 25.6816 65.7805 21.972 63.7934 20.7943C66.2536 22.7571 70.3225 29.6268 66.916 41.4034Z" fill="#F9627D"/>
</svg>
